<svg width="35" height="15" viewBox="0 0 35 15" fill="none" xmlns="http://www.w3.org/2000/svg">
<path fill-rule="evenodd" clip-rule="evenodd" d="M22.6719 0.478504C22.5062 0.257627 22.1928 0.212926 21.9719 0.378662C21.751 0.544397 21.7063 0.857808 21.872 1.07868C24.0011 3.91614 26.9933 5.96373 30.3764 6.92995L1.37299 6.92995C1.09684 6.92995 0.872986 7.15381 0.872986 7.42995C0.872986 7.70609 1.09684 7.92995 1.37299 7.92995L30.0705 7.92995C26.8328 9.03191 23.9773 11.0677 21.8757 13.7986C21.7073 14.0174 21.7482 14.3314 21.967 14.4998C22.1859 14.6682 22.4998 14.6273 22.6682 14.4085C24.9865 11.396 28.2779 9.28086 31.9813 8.4237L34.2405 7.90081C34.8953 7.74925 34.8727 6.80919 34.2113 6.68928L32.1129 6.30878C28.3434 5.62527 24.9712 3.54281 22.6719 0.478504Z" fill="#F594EF"/>
</svg>
