<svg width="71" height="11" viewBox="0 0 71 11" fill="none" xmlns="http://www.w3.org/2000/svg">
<g clip-path="url(#clip0_1582_29)">
<path d="M13.188 0.674805H11.5195V9.13589H13.188V0.674805Z" fill="white"/>
<path d="M9.6028 1.14826H7.93428V9.60917H9.6028V1.14826Z" fill="white"/>
<path d="M6.01762 1.67682H4.3491V10.1393H6.01762V1.67682Z" fill="white"/>
<path d="M2.43244 2.21126H0.763916L0.763922 10.6748H2.43245L2.43244 2.21126Z" fill="white"/>
<path d="M57.2564 5.18276L54.5699 2.19575H52.9993V9.11171H54.6391V4.69919L57.0918 7.31346H57.3949L59.8055 4.69919V9.11171H61.4453V2.19575H59.8747L57.2564 5.18276Z" fill="white"/>
<path d="M69.2578 2.19575L65.1933 6.69087V2.19575H63.5535V9.11171H65.0558L69.1203 4.61659V9.11171H70.7601V2.19575H69.2578Z" fill="white"/>
<path d="M44.1667 4.72639C44.1667 5.82751 44.7689 6.6949 45.6931 7.05858L43.96 9.11171H45.9671L47.5437 7.24395H49.2498V9.11171H50.8896V2.19575H46.7148C45.1582 2.19575 44.1667 3.26059 44.1667 4.72639ZM49.2508 3.71897V5.76404H47.0189C46.2742 5.76404 45.8748 5.34898 45.8748 4.7405C45.8748 4.13201 46.2883 3.71696 47.0189 3.71696L49.2508 3.71897Z" fill="white"/>
<path d="M36.5465 3.57894C36.4462 5.95747 35.9444 7.49278 34.9619 7.49278H34.716V9.15301L34.9779 9.16712C36.9479 9.27693 38.0368 7.54819 38.2154 3.77237H40.8067V9.11171H42.4435V2.19575H36.6017L36.5465 3.57894Z" fill="white"/>
<path d="M30.3736 2.09912C28.1558 2.09912 26.5601 3.63443 26.5601 5.65331C26.5601 7.7417 28.2963 9.22261 30.3736 9.22261C32.5373 9.22261 34.2183 7.65909 34.2183 5.65331C34.2183 3.64753 32.5373 2.09912 30.3736 2.09912ZM30.3736 7.56238C29.1202 7.56238 28.2661 6.74637 28.2661 5.65331C28.2661 4.53306 29.1212 3.73921 30.3736 3.73921C31.6261 3.73921 32.5092 4.56932 32.5092 5.65331C32.5092 6.7373 31.614 7.56238 30.3736 7.56238Z" fill="white"/>
<path d="M24.8209 2.20879H19.0334L18.9782 3.59199C18.8959 5.58467 18.376 7.47963 17.3935 7.50683L16.9389 7.52094V10.6749L18.5928 10.6716V9.11267H24.3382V10.6716H26.0061V7.50683H24.8209V2.20879ZM23.1811 7.50683H19.6817C20.2738 6.60821 20.5909 5.30763 20.6461 3.78642H23.1811V7.50683Z" fill="white"/>
</g>
<defs>
<clipPath id="clip0_1582_29">
<rect width="70" height="10" fill="white" transform="translate(0.763916 0.674805)"/>
</clipPath>
</defs>
</svg>
