<svg width="52" height="53" viewBox="0 0 52 53" fill="none" xmlns="http://www.w3.org/2000/svg">
<path fill-rule="evenodd" clip-rule="evenodd" d="M26 0.359367C11.6406 0.359367 0 12.0595 0 26.4924C0 40.9253 11.6406 52.6255 26 52.6255C40.3594 52.6255 52 40.9253 52 26.4924C52 12.0595 40.3594 0.359367 26 0.359367ZM32.0607 25.4317L22.5147 15.8857C21.9289 15.2999 20.9792 15.2999 20.3934 15.8857C19.8076 16.4715 19.8076 17.4213 20.3934 18.007L28 25.6136V27.371L20.3934 34.9776C19.8076 35.5634 19.8076 36.5131 20.3934 37.0989C20.9792 37.6847 21.9289 37.6847 22.5147 37.0989L32.0607 27.553C32.6464 26.9672 32.6464 26.0174 32.0607 25.4317Z" fill="white"/>
</svg>
