<svg width="52" height="53" viewBox="0 0 52 53" fill="none" xmlns="http://www.w3.org/2000/svg">
<path fill-rule="evenodd" clip-rule="evenodd" d="M26 52.6255C40.3594 52.6255 52 40.9253 52 26.4924C52 12.0595 40.3594 0.359375 26 0.359375C11.6406 0.359375 0 12.0595 0 26.4924C0 40.9253 11.6406 52.6255 26 52.6255ZM19.9393 27.553L29.4853 37.0989C30.0711 37.6847 31.0208 37.6847 31.6066 37.0989C32.1924 36.5131 32.1924 35.5634 31.6066 34.9776L24 27.371V25.6136L31.6066 18.007C32.1924 17.4213 32.1924 16.4715 31.6066 15.8857C31.0208 15.2999 30.0711 15.2999 29.4853 15.8857L19.9393 25.4317C19.3536 26.0175 19.3536 26.9672 19.9393 27.553Z" fill="white"/>
</svg>
