<svg width="56" height="23" viewBox="0 0 56 23" fill="none" xmlns="http://www.w3.org/2000/svg">
<path fill-rule="evenodd" clip-rule="evenodd" d="M35.7451 0.199939C35.5793 -0.0209375 35.2659 -0.0656382 35.045 0.100097C34.8242 0.265832 34.7795 0.579243 34.9452 0.80012C38.8785 6.04212 44.6472 9.60451 51.0956 10.7738L51.2632 10.8042L1.39807 10.8042C1.12193 10.8042 0.898071 11.028 0.898071 11.3042C0.898071 11.5803 1.12193 11.8042 1.39807 11.8042L50.147 11.8042C44.1106 13.3596 38.7587 16.8881 34.9489 21.8387C34.7805 22.0575 34.8214 22.3714 35.0402 22.5399C35.259 22.7083 35.573 22.6674 35.7414 22.4485C39.5511 17.4982 44.9598 14.0224 51.0455 12.6138L54.7151 11.7645C55.4484 11.5948 55.4231 10.5421 54.6825 10.4078L51.274 9.78981C45.0737 8.66554 39.5271 5.24023 35.7451 0.199939ZM53.0242 11.1294L53.0386 11.1261L53.0218 11.123C53.0226 11.1251 53.0234 11.1273 53.0242 11.1294Z" fill="#0050B9"/>
</svg>
