<svg width="55" height="23" viewBox="0 0 55 23" fill="none" xmlns="http://www.w3.org/2000/svg">
<path fill-rule="evenodd" clip-rule="evenodd" d="M19.5066 22.4439C19.6724 22.6647 19.9858 22.7094 20.2067 22.5437C20.4275 22.378 20.4722 22.0646 20.3065 21.8437C16.3732 16.6017 10.6046 13.0393 4.1561 11.87L3.98852 11.8396L53.8536 11.8396C54.1298 11.8396 54.3536 11.6158 54.3536 11.3396C54.3536 11.0635 54.1298 10.8396 53.8536 10.8396L5.10471 10.8396C11.1411 9.28422 16.493 5.7557 20.3028 0.805132C20.4712 0.586292 20.4304 0.27236 20.2115 0.103947C19.9927 -0.0644684 19.6787 -0.0235882 19.5103 0.195253C15.7007 5.14565 10.2919 8.62142 4.20617 10.03L0.536606 10.8793C-0.196663 11.049 -0.171337 12.1017 0.569225 12.236L3.97768 12.854C10.178 13.9783 15.7247 17.4036 19.5066 22.4439ZM2.22747 11.5144L2.21309 11.5177L2.2299 11.5208C2.22908 11.5187 2.22827 11.5165 2.22747 11.5144Z" fill="#0050B9"/>
</svg>
